<svg width="50" height="50" viewBox="0 0 50 50" fill="none" xmlns="http://www.w3.org/2000/svg">
<rect width="50" height="50" rx="3" fill="#ADADAD"/>
<path d="M24.9375 37.125C26.6465 37.125 28.0137 35.7578 28.0137 34H21.8125C21.8125 35.7578 23.1797 37.125 24.9375 37.125ZM35.4355 29.8496C34.5078 28.8242 32.7012 27.3105 32.7012 22.2812C32.7012 18.5215 30.0645 15.4941 26.4512 14.7129V13.6875C26.4512 12.8574 25.7676 12.125 24.9375 12.125C24.0586 12.125 23.375 12.8574 23.375 13.6875V14.7129C19.7617 15.4941 17.125 18.5215 17.125 22.2812C17.125 27.3105 15.3184 28.8242 14.3906 29.8496C14.0977 30.1426 13.9512 30.5332 14 30.875C14 31.7051 14.5859 32.4375 15.5625 32.4375H34.2637C35.2402 32.4375 35.8262 31.7051 35.875 30.875C35.875 30.5332 35.7285 30.1426 35.4355 29.8496Z" fill="white"/>
</svg>
