<svg width="50" height="50" viewBox="0 0 50 50" fill="none" xmlns="http://www.w3.org/2000/svg">
<rect width="50" height="50" rx="3" fill="#ADADAD"/>
<path d="M24.9375 24.625C28.3555 24.625 31.1875 21.8418 31.1875 18.375C31.1875 14.957 28.3555 12.125 24.9375 12.125C21.4707 12.125 18.6875 14.957 18.6875 18.375C18.6875 21.8418 21.4707 24.625 24.9375 24.625ZM29.2832 26.1875H28.4531C27.3789 26.7246 26.207 26.9688 24.9375 26.9688C23.668 26.9688 22.4473 26.7246 21.373 26.1875H20.543C16.9297 26.1875 14 29.166 14 32.7793V34.7812C14 36.0996 15.0254 37.125 16.3438 37.125H33.5312C34.8008 37.125 35.875 36.0996 35.875 34.7812V32.7793C35.875 29.166 32.8965 26.1875 29.2832 26.1875Z" fill="white"/>
</svg>
